<?xml version="1.0" encoding="UTF-8" standalone="no"?>
<!DOCTYPE svg PUBLIC "-//W3C//DTD SVG 1.1//EN"
 "http://www.w3.org/Graphics/SVG/1.1/DTD/svg11.dtd">
<!-- Generated by graphviz version 14.1.3 (20260303.0454)
 -->
<!-- Pages: 1 -->
<svg width="4130pt" height="116pt"
 viewBox="0.00 0.00 4130.00 116.00" xmlns="http://www.w3.org/2000/svg" xmlns:xlink="http://www.w3.org/1999/xlink">
<g id="graph0" class="graph" transform="scale(1 1) rotate(0) translate(4 112)">
<polygon fill="white" stroke="none" points="-4,4 -4,-112 4126.04,-112 4126.04,4 -4,4"/>
<!-- tools.screen_tools -->
<g id="node1" class="node">
<title>tools.screen_tools</title>
<ellipse fill="none" stroke="black" cx="1746.84" cy="-90" rx="77.45" ry="18"/>
<text xml:space="preserve" text-anchor="middle" x="1746.84" y="-84.95" font-family="Times,serif" font-size="14.00">tools.screen_tools</text>
</g>
<!-- aegis.tools.context -->
<g id="node2" class="node">
<title>aegis.tools.context</title>
<ellipse fill="none" stroke="black" cx="1457.84" cy="-18" rx="80.01" ry="18"/>
<text xml:space="preserve" text-anchor="middle" x="1457.84" y="-12.95" font-family="Times,serif" font-size="14.00">aegis.tools.context</text>
</g>
<!-- tools.screen_tools&#45;&gt;aegis.tools.context -->
<g id="edge1" class="edge">
<title>tools.screen_tools&#45;&gt;aegis.tools.context</title>
<path fill="none" stroke="black" d="M1694.5,-76.32C1646.01,-64.58 1573.75,-47.08 1521.84,-34.5"/>
<polygon fill="black" stroke="black" points="1522.78,-31.13 1512.23,-32.18 1521.13,-37.93 1522.78,-31.13"/>
</g>
<!-- aegis.perception.screen.capture -->
<g id="node19" class="node">
<title>aegis.perception.screen.capture</title>
<ellipse fill="none" stroke="black" cx="1800.84" cy="-18" rx="127.1" ry="18"/>
<text xml:space="preserve" text-anchor="middle" x="1800.84" y="-12.95" font-family="Times,serif" font-size="14.00">aegis.perception.screen.capture</text>
</g>
<!-- tools.screen_tools&#45;&gt;aegis.perception.screen.capture -->
<g id="edge38" class="edge">
<title>tools.screen_tools&#45;&gt;aegis.perception.screen.capture</title>
<path fill="none" stroke="black" d="M1759.91,-72.05C1766.12,-64.01 1773.68,-54.2 1780.61,-45.23"/>
<polygon fill="black" stroke="black" points="1783.25,-47.53 1786.59,-37.47 1777.71,-43.25 1783.25,-47.53"/>
</g>
<!-- aegis.tools.base -->
<g id="node22" class="node">
<title>aegis.tools.base</title>
<ellipse fill="none" stroke="black" cx="1290.84" cy="-18" rx="69.26" ry="18"/>
<text xml:space="preserve" text-anchor="middle" x="1290.84" y="-12.95" font-family="Times,serif" font-size="14.00">aegis.tools.base</text>
</g>
<!-- tools.screen_tools&#45;&gt;aegis.tools.base -->
<g id="edge26" class="edge">
<title>tools.screen_tools&#45;&gt;aegis.tools.base</title>
<path fill="none" stroke="black" d="M1690.31,-77.36C1680.19,-75.45 1669.72,-73.57 1659.84,-72 1531.14,-51.49 1497.31,-57.9 1368.84,-36 1363.34,-35.06 1357.65,-34 1351.96,-32.88"/>
<polygon fill="black" stroke="black" points="1353.04,-29.53 1342.54,-30.96 1351.64,-36.38 1353.04,-29.53"/>
</g>
<!-- aegis.perception.screen.ocr -->
<g id="node25" class="node">
<title>aegis.perception.screen.ocr</title>
<ellipse fill="none" stroke="black" cx="2057.84" cy="-18" rx="111.74" ry="18"/>
<text xml:space="preserve" text-anchor="middle" x="2057.84" y="-12.95" font-family="Times,serif" font-size="14.00">aegis.perception.screen.ocr</text>
</g>
<!-- tools.screen_tools&#45;&gt;aegis.perception.screen.ocr -->
<g id="edge23" class="edge">
<title>tools.screen_tools&#45;&gt;aegis.perception.screen.ocr</title>
<path fill="none" stroke="black" d="M1801.01,-76.81C1851.59,-65.42 1927.5,-48.34 1983.69,-35.69"/>
<polygon fill="black" stroke="black" points="1984.18,-39.17 1993.17,-33.56 1982.64,-32.34 1984.18,-39.17"/>
</g>
<!-- tools.navigation_tools -->
<g id="node3" class="node">
<title>tools.navigation_tools</title>
<ellipse fill="none" stroke="black" cx="875.84" cy="-90" rx="92.81" ry="18"/>
<text xml:space="preserve" text-anchor="middle" x="875.84" y="-84.95" font-family="Times,serif" font-size="14.00">tools.navigation_tools</text>
</g>
<!-- tools.navigation_tools&#45;&gt;aegis.tools.context -->
<g id="edge13" class="edge">
<title>tools.navigation_tools&#45;&gt;aegis.tools.context</title>
<path fill="none" stroke="black" d="M942.67,-77.14C954.37,-75.27 966.44,-73.47 977.84,-72 1150.91,-49.64 1196.04,-60.4 1368.84,-36 1375.59,-35.05 1382.6,-33.93 1389.59,-32.73"/>
<polygon fill="black" stroke="black" points="1389.8,-36.25 1399.03,-31.06 1388.58,-29.36 1389.8,-36.25"/>
</g>
<!-- aegis.perception.cursor -->
<g id="node4" class="node">
<title>aegis.perception.cursor</title>
<ellipse fill="none" stroke="black" cx="820.84" cy="-18" rx="96.9" ry="18"/>
<text xml:space="preserve" text-anchor="middle" x="820.84" y="-12.95" font-family="Times,serif" font-size="14.00">aegis.perception.cursor</text>
</g>
<!-- tools.navigation_tools&#45;&gt;aegis.perception.cursor -->
<g id="edge2" class="edge">
<title>tools.navigation_tools&#45;&gt;aegis.perception.cursor</title>
<path fill="none" stroke="black" d="M862.53,-72.05C856.2,-64.01 848.5,-54.2 841.45,-45.23"/>
<polygon fill="black" stroke="black" points="844.28,-43.17 835.35,-37.47 838.77,-47.49 844.28,-43.17"/>
</g>
<!-- aegis.perception.window -->
<g id="node17" class="node">
<title>aegis.perception.window</title>
<ellipse fill="none" stroke="black" cx="352.84" cy="-18" rx="103.56" ry="18"/>
<text xml:space="preserve" text-anchor="middle" x="352.84" y="-12.95" font-family="Times,serif" font-size="14.00">aegis.perception.window</text>
</g>
<!-- tools.navigation_tools&#45;&gt;aegis.perception.window -->
<g id="edge44" class="edge">
<title>tools.navigation_tools&#45;&gt;aegis.perception.window</title>
<path fill="none" stroke="black" d="M808.43,-77.28C796.9,-75.42 785.04,-73.58 773.84,-72 636.94,-52.63 601.87,-54.38 464.84,-36 456.5,-34.88 447.83,-33.66 439.16,-32.41"/>
<polygon fill="black" stroke="black" points="439.69,-28.95 429.29,-30.96 438.68,-35.88 439.69,-28.95"/>
</g>
<!-- tools.navigation_tools&#45;&gt;aegis.tools.base -->
<g id="edge48" class="edge">
<title>tools.navigation_tools&#45;&gt;aegis.tools.base</title>
<path fill="none" stroke="black" d="M944.13,-77.49C955.39,-75.63 966.94,-73.74 977.84,-72 1082.18,-55.31 1108.95,-55.26 1212.84,-36 1218.1,-35.03 1223.54,-33.96 1229,-32.85"/>
<polygon fill="black" stroke="black" points="1229.6,-36.3 1238.68,-30.83 1228.18,-29.44 1229.6,-36.3"/>
</g>
<!-- interfaces.voice -->
<g id="node5" class="node">
<title>interfaces.voice</title>
<ellipse fill="none" stroke="black" cx="2676.84" cy="-90" rx="69.26" ry="18"/>
<text xml:space="preserve" text-anchor="middle" x="2676.84" y="-84.95" font-family="Times,serif" font-size="14.00">interfaces.voice</text>
</g>
<!-- interfaces.voice&#45;&gt;aegis.tools.context -->
<g id="edge7" class="edge">
<title>interfaces.voice&#45;&gt;aegis.tools.context</title>
<path fill="none" stroke="black" d="M2617.09,-80.56C2592.58,-77.39 2563.89,-74.06 2537.84,-72 2098.48,-37.22 1984.79,-85.49 1546.84,-36 1539.86,-35.21 1532.62,-34.18 1525.4,-33.02"/>
<polygon fill="black" stroke="black" points="1526.08,-29.58 1515.63,-31.35 1524.9,-36.48 1526.08,-29.58"/>
</g>
<!-- aegis.browser_manager -->
<g id="node6" class="node">
<title>aegis.browser_manager</title>
<ellipse fill="none" stroke="black" cx="2444.84" cy="-18" rx="98.95" ry="18"/>
<text xml:space="preserve" text-anchor="middle" x="2444.84" y="-12.95" font-family="Times,serif" font-size="14.00">aegis.browser_manager</text>
</g>
<!-- interfaces.voice&#45;&gt;aegis.browser_manager -->
<g id="edge3" class="edge">
<title>interfaces.voice&#45;&gt;aegis.browser_manager</title>
<path fill="none" stroke="black" d="M2632.93,-75.75C2596.91,-64.88 2545.52,-49.38 2505.55,-37.32"/>
<polygon fill="black" stroke="black" points="2506.64,-33.99 2496.06,-34.45 2504.62,-40.69 2506.64,-33.99"/>
</g>
<!-- aegis.tools.declarations -->
<g id="node10" class="node">
<title>aegis.tools.declarations</title>
<ellipse fill="none" stroke="black" cx="3249.84" cy="-18" rx="97.41" ry="18"/>
<text xml:space="preserve" text-anchor="middle" x="3249.84" y="-12.95" font-family="Times,serif" font-size="14.00">aegis.tools.declarations</text>
</g>
<!-- interfaces.voice&#45;&gt;aegis.tools.declarations -->
<g id="edge52" class="edge">
<title>interfaces.voice&#45;&gt;aegis.tools.declarations</title>
<path fill="none" stroke="black" d="M2740.78,-82.68C2830.85,-73.57 3000.14,-55.67 3143.84,-36 3151.71,-34.92 3159.9,-33.73 3168.08,-32.5"/>
<polygon fill="black" stroke="black" points="3168.35,-36 3177.71,-31.02 3167.29,-29.08 3168.35,-36"/>
</g>
<!-- aegis.agent.gate -->
<g id="node13" class="node">
<title>aegis.agent.gate</title>
<ellipse fill="none" stroke="black" cx="2257.84" cy="-18" rx="70.29" ry="18"/>
<text xml:space="preserve" text-anchor="middle" x="2257.84" y="-12.95" font-family="Times,serif" font-size="14.00">aegis.agent.gate</text>
</g>
<!-- interfaces.voice&#45;&gt;aegis.agent.gate -->
<g id="edge8" class="edge">
<title>interfaces.voice&#45;&gt;aegis.agent.gate</title>
<path fill="none" stroke="black" d="M2616.78,-80.7C2548.7,-71.05 2434.49,-54.1 2336.84,-36 2331.6,-35.03 2326.17,-33.97 2320.73,-32.87"/>
<polygon fill="black" stroke="black" points="2321.58,-29.48 2311.08,-30.89 2320.17,-36.33 2321.58,-29.48"/>
</g>
<!-- aegis.interfaces -->
<g id="node14" class="node">
<title>aegis.interfaces</title>
<ellipse fill="none" stroke="black" cx="2878.84" cy="-18" rx="68.24" ry="18"/>
<text xml:space="preserve" text-anchor="middle" x="2878.84" y="-12.95" font-family="Times,serif" font-size="14.00">aegis.interfaces</text>
</g>
<!-- interfaces.voice&#45;&gt;aegis.interfaces -->
<g id="edge9" class="edge">
<title>interfaces.voice&#45;&gt;aegis.interfaces</title>
<path fill="none" stroke="black" d="M2717.23,-75C2749.02,-63.99 2793.53,-48.56 2827.78,-36.69"/>
<polygon fill="black" stroke="black" points="2828.78,-40.05 2837.09,-33.47 2826.49,-33.44 2828.78,-40.05"/>
</g>
<!-- interfaces.voice&#45;&gt;aegis.perception.screen.capture -->
<g id="edge42" class="edge">
<title>interfaces.voice&#45;&gt;aegis.perception.screen.capture</title>
<path fill="none" stroke="black" d="M2616.37,-80.78C2592.01,-77.68 2563.62,-74.35 2537.84,-72 2271.35,-47.75 2203.3,-60.61 1936.84,-36 1925.53,-34.96 1913.7,-33.71 1901.95,-32.37"/>
<polygon fill="black" stroke="black" points="1902.57,-28.92 1892.23,-31.24 1901.76,-35.87 1902.57,-28.92"/>
</g>
<!-- aegis.runtime.tool_manager -->
<g id="node21" class="node">
<title>aegis.runtime.tool_manager</title>
<ellipse fill="none" stroke="black" cx="2676.84" cy="-18" rx="115.33" ry="18"/>
<text xml:space="preserve" text-anchor="middle" x="2676.84" y="-12.95" font-family="Times,serif" font-size="14.00">aegis.runtime.tool_manager</text>
</g>
<!-- interfaces.voice&#45;&gt;aegis.runtime.tool_manager -->
<g id="edge19" class="edge">
<title>interfaces.voice&#45;&gt;aegis.runtime.tool_manager</title>
<path fill="none" stroke="black" d="M2676.84,-71.7C2676.84,-64.41 2676.84,-55.73 2676.84,-47.54"/>
<polygon fill="black" stroke="black" points="2680.34,-47.62 2676.84,-37.62 2673.34,-47.62 2680.34,-47.62"/>
</g>
<!-- interfaces.voice&#45;&gt;aegis.perception.screen.ocr -->
<g id="edge25" class="edge">
<title>interfaces.voice&#45;&gt;aegis.perception.screen.ocr</title>
<path fill="none" stroke="black" d="M2615.63,-81.22C2591.42,-78.22 2563.33,-74.84 2537.84,-72 2378.47,-54.27 2338.05,-55.16 2178.84,-36 2169.35,-34.86 2159.46,-33.59 2149.59,-32.28"/>
<polygon fill="black" stroke="black" points="2150.37,-28.85 2139.99,-30.99 2149.43,-35.79 2150.37,-28.85"/>
</g>
<!-- aegis.runtime.screen_executor -->
<g id="node28" class="node">
<title>aegis.runtime.screen_executor</title>
<ellipse fill="none" stroke="black" cx="3689.84" cy="-18" rx="124.03" ry="18"/>
<text xml:space="preserve" text-anchor="middle" x="3689.84" y="-12.95" font-family="Times,serif" font-size="14.00">aegis.runtime.screen_executor</text>
</g>
<!-- interfaces.voice&#45;&gt;aegis.runtime.screen_executor -->
<g id="edge30" class="edge">
<title>interfaces.voice&#45;&gt;aegis.runtime.screen_executor</title>
<path fill="none" stroke="black" d="M2745.14,-86.45C2893.24,-80.57 3254.93,-64.35 3556.84,-36 3567.79,-34.97 3579.23,-33.74 3590.6,-32.42"/>
<polygon fill="black" stroke="black" points="3590.91,-35.91 3600.43,-31.26 3590.09,-28.96 3590.91,-35.91"/>
</g>
<!-- aegis.computer_use -->
<g id="node31" class="node">
<title>aegis.computer_use</title>
<ellipse fill="none" stroke="black" cx="3049.84" cy="-18" rx="84.62" ry="18"/>
<text xml:space="preserve" text-anchor="middle" x="3049.84" y="-12.95" font-family="Times,serif" font-size="14.00">aegis.computer_use</text>
</g>
<!-- interfaces.voice&#45;&gt;aegis.computer_use -->
<g id="edge35" class="edge">
<title>interfaces.voice&#45;&gt;aegis.computer_use</title>
<path fill="none" stroke="black" d="M2731.88,-78.67C2796.8,-66.49 2904.96,-46.19 2976.83,-32.7"/>
<polygon fill="black" stroke="black" points="2977.38,-36.16 2986.56,-30.88 2976.08,-29.28 2977.38,-36.16"/>
</g>
<!-- aegis.runtime.context -->
<g id="node32" class="node">
<title>aegis.runtime.context</title>
<ellipse fill="none" stroke="black" cx="3456.84" cy="-18" rx="91.27" ry="18"/>
<text xml:space="preserve" text-anchor="middle" x="3456.84" y="-12.95" font-family="Times,serif" font-size="14.00">aegis.runtime.context</text>
</g>
<!-- interfaces.voice&#45;&gt;aegis.runtime.context -->
<g id="edge37" class="edge">
<title>interfaces.voice&#45;&gt;aegis.runtime.context</title>
<path fill="none" stroke="black" d="M2744.5,-85.71C2866.84,-79.33 3132.86,-63.41 3355.84,-36 3363.73,-35.03 3371.94,-33.88 3380.12,-32.64"/>
<polygon fill="black" stroke="black" points="3380.39,-36.15 3389.73,-31.15 3379.31,-29.23 3380.39,-36.15"/>
</g>
<!-- agent.gate -->
<g id="node7" class="node">
<title>agent.gate</title>
<ellipse fill="none" stroke="black" cx="3456.84" cy="-90" rx="48.79" ry="18"/>
<text xml:space="preserve" text-anchor="middle" x="3456.84" y="-84.95" font-family="Times,serif" font-size="14.00">agent.gate</text>
</g>
<!-- aegis.agent.classifier -->
<g id="node8" class="node">
<title>aegis.agent.classifier</title>
<ellipse fill="none" stroke="black" cx="4033.84" cy="-18" rx="88.2" ry="18"/>
<text xml:space="preserve" text-anchor="middle" x="4033.84" y="-12.95" font-family="Times,serif" font-size="14.00">aegis.agent.classifier</text>
</g>
<!-- agent.gate&#45;&gt;aegis.agent.classifier -->
<g id="edge4" class="edge">
<title>agent.gate&#45;&gt;aegis.agent.classifier</title>
<path fill="none" stroke="black" d="M3503.98,-84.8C3590.13,-76.89 3778.73,-58.56 3936.84,-36 3943.98,-34.98 3951.39,-33.84 3958.81,-32.64"/>
<polygon fill="black" stroke="black" points="3959.23,-36.11 3968.52,-31.03 3958.08,-29.21 3959.23,-36.11"/>
</g>
<!-- agent.gate&#45;&gt;aegis.tools.declarations -->
<g id="edge51" class="edge">
<title>agent.gate&#45;&gt;aegis.tools.declarations</title>
<path fill="none" stroke="black" d="M3421.72,-77.13C3390.02,-66.4 3342.82,-50.44 3305.9,-37.96"/>
<polygon fill="black" stroke="black" points="3307.31,-34.74 3296.72,-34.85 3305.07,-41.37 3307.31,-34.74"/>
</g>
<!-- agent.gate&#45;&gt;aegis.interfaces -->
<g id="edge53" class="edge">
<title>agent.gate&#45;&gt;aegis.interfaces</title>
<path fill="none" stroke="black" d="M3413.68,-81.23C3395.01,-78.06 3372.89,-74.55 3352.84,-72 3177.08,-49.7 3130.91,-63.15 2955.84,-36 2950.32,-35.14 2944.6,-34.13 2938.88,-33.03"/>
<polygon fill="black" stroke="black" points="2939.93,-29.67 2929.44,-31.12 2938.55,-36.53 2939.93,-29.67"/>
</g>
<!-- aegis.auth -->
<g id="node15" class="node">
<title>aegis.auth</title>
<ellipse fill="none" stroke="black" cx="3879.84" cy="-18" rx="48.28" ry="18"/>
<text xml:space="preserve" text-anchor="middle" x="3879.84" y="-12.95" font-family="Times,serif" font-size="14.00">aegis.auth</text>
</g>
<!-- agent.gate&#45;&gt;aegis.auth -->
<g id="edge10" class="edge">
<title>agent.gate&#45;&gt;aegis.auth</title>
<path fill="none" stroke="black" d="M3503.74,-84.43C3573.76,-77.1 3709.51,-60.97 3822.84,-36 3826.21,-35.26 3829.67,-34.42 3833.14,-33.52"/>
<polygon fill="black" stroke="black" points="3833.99,-36.92 3842.71,-30.91 3832.14,-30.17 3833.99,-36.92"/>
</g>
<!-- agent.gate&#45;&gt;aegis.perception.screen.capture -->
<g id="edge40" class="edge">
<title>agent.gate&#45;&gt;aegis.perception.screen.capture</title>
<path fill="none" stroke="black" d="M3414.25,-80.69C3395.5,-77.38 3373.15,-73.91 3352.84,-72 2726.07,-13.08 2564.61,-83.1 1936.84,-36 1925.03,-35.11 1912.67,-33.93 1900.43,-32.6"/>
<polygon fill="black" stroke="black" points="1901.07,-29.15 1890.74,-31.51 1900.28,-36.1 1901.07,-29.15"/>
</g>
<!-- agent.gate&#45;&gt;aegis.runtime.screen_executor -->
<g id="edge34" class="edge">
<title>agent.gate&#45;&gt;aegis.runtime.screen_executor</title>
<path fill="none" stroke="black" d="M3493.76,-77.91C3529.41,-67.2 3584.1,-50.77 3626.68,-37.98"/>
<polygon fill="black" stroke="black" points="3627.48,-41.39 3636.05,-35.16 3625.46,-34.69 3627.48,-41.39"/>
</g>
<!-- agent.gate&#45;&gt;aegis.runtime.context -->
<g id="edge36" class="edge">
<title>agent.gate&#45;&gt;aegis.runtime.context</title>
<path fill="none" stroke="black" d="M3456.84,-71.7C3456.84,-64.41 3456.84,-55.73 3456.84,-47.54"/>
<polygon fill="black" stroke="black" points="3460.34,-47.62 3456.84,-37.62 3453.34,-47.62 3460.34,-47.62"/>
</g>
<!-- runtime.screen_executor -->
<g id="node9" class="node">
<title>runtime.screen_executor</title>
<ellipse fill="none" stroke="black" cx="1944.84" cy="-90" rx="102.53" ry="18"/>
<text xml:space="preserve" text-anchor="middle" x="1944.84" y="-84.95" font-family="Times,serif" font-size="14.00">runtime.screen_executor</text>
</g>
<!-- runtime.screen_executor&#45;&gt;aegis.tools.context -->
<g id="edge12" class="edge">
<title>runtime.screen_executor&#45;&gt;aegis.tools.context</title>
<path fill="none" stroke="black" d="M1869.87,-77.35C1857.51,-75.51 1844.82,-73.66 1832.84,-72 1705.94,-54.39 1673.38,-56.03 1546.84,-36 1540.47,-34.99 1533.86,-33.87 1527.24,-32.7"/>
<polygon fill="black" stroke="black" points="1528.11,-29.3 1517.64,-30.96 1526.86,-36.19 1528.11,-29.3"/>
</g>
<!-- runtime.screen_executor&#45;&gt;aegis.tools.declarations -->
<g id="edge5" class="edge">
<title>runtime.screen_executor&#45;&gt;aegis.tools.declarations</title>
<path fill="none" stroke="black" d="M2016.34,-76.77C2029.44,-74.89 2043.03,-73.19 2055.84,-72 2537.59,-27.3 2662.25,-82.4 3143.84,-36 3152.45,-35.17 3161.42,-34.08 3170.34,-32.86"/>
<polygon fill="black" stroke="black" points="3170.68,-36.35 3180.08,-31.46 3169.68,-29.42 3170.68,-36.35"/>
</g>
<!-- aegis.tools -->
<g id="node12" class="node">
<title>aegis.tools</title>
<ellipse fill="none" stroke="black" cx="1605.84" cy="-18" rx="50.33" ry="18"/>
<text xml:space="preserve" text-anchor="middle" x="1605.84" y="-12.95" font-family="Times,serif" font-size="14.00">aegis.tools</text>
</g>
<!-- runtime.screen_executor&#45;&gt;aegis.tools -->
<g id="edge18" class="edge">
<title>runtime.screen_executor&#45;&gt;aegis.tools</title>
<path fill="none" stroke="black" d="M1871.63,-77.07C1814.91,-67.37 1734.5,-52.59 1664.84,-36 1661.47,-35.2 1658.01,-34.33 1654.54,-33.42"/>
<polygon fill="black" stroke="black" points="1655.5,-30.05 1644.93,-30.81 1653.66,-36.81 1655.5,-30.05"/>
</g>
<!-- runtime.screen_executor&#45;&gt;aegis.perception.screen.capture -->
<g id="edge54" class="edge">
<title>runtime.screen_executor&#45;&gt;aegis.perception.screen.capture</title>
<path fill="none" stroke="black" d="M1911.08,-72.59C1891.59,-63.12 1866.84,-51.09 1845.73,-40.82"/>
<polygon fill="black" stroke="black" points="1847.27,-37.68 1836.75,-36.46 1844.21,-43.98 1847.27,-37.68"/>
</g>
<!-- tools.__init__ -->
<g id="node11" class="node">
<title>tools.__init__</title>
<ellipse fill="none" stroke="black" cx="1390.84" cy="-90" rx="62.1" ry="18"/>
<text xml:space="preserve" text-anchor="middle" x="1390.84" y="-84.95" font-family="Times,serif" font-size="14.00">tools.__init__</text>
</g>
<!-- tools.__init__&#45;&gt;aegis.tools -->
<g id="edge6" class="edge">
<title>tools.__init__&#45;&gt;aegis.tools</title>
<path fill="none" stroke="black" d="M1431.03,-75.92C1467.2,-64.14 1520.39,-46.82 1558.59,-34.38"/>
<polygon fill="black" stroke="black" points="1559.57,-37.75 1567.99,-31.32 1557.4,-31.09 1559.57,-37.75"/>
</g>
<!-- tools.__init__&#45;&gt;aegis.tools.base -->
<g id="edge20" class="edge">
<title>tools.__init__&#45;&gt;aegis.tools.base</title>
<path fill="none" stroke="black" d="M1368.15,-73.12C1354.91,-63.85 1337.99,-52.01 1323.36,-41.76"/>
<polygon fill="black" stroke="black" points="1325.57,-39.04 1315.37,-36.17 1321.56,-44.78 1325.57,-39.04"/>
</g>
<!-- perception.screen.__init__ -->
<g id="node16" class="node">
<title>perception.screen.__init__</title>
<ellipse fill="none" stroke="black" cx="461.84" cy="-90" rx="109.19" ry="18"/>
<text xml:space="preserve" text-anchor="middle" x="461.84" y="-84.95" font-family="Times,serif" font-size="14.00">perception.screen.__init__</text>
</g>
<!-- perception.screen.__init__&#45;&gt;aegis.perception.cursor -->
<g id="edge15" class="edge">
<title>perception.screen.__init__&#45;&gt;aegis.perception.cursor</title>
<path fill="none" stroke="black" d="M530.21,-75.67C591.43,-63.73 681.09,-46.25 744.6,-33.87"/>
<polygon fill="black" stroke="black" points="745.12,-37.33 754.26,-31.98 743.78,-30.46 745.12,-37.33"/>
</g>
<!-- perception.screen.__init__&#45;&gt;aegis.perception.window -->
<g id="edge11" class="edge">
<title>perception.screen.__init__&#45;&gt;aegis.perception.window</title>
<path fill="none" stroke="black" d="M435.45,-72.05C421.4,-63.03 403.9,-51.79 388.63,-41.99"/>
<polygon fill="black" stroke="black" points="390.56,-39.07 380.26,-36.61 386.78,-44.96 390.56,-39.07"/>
</g>
<!-- perception.screen.__init__&#45;&gt;aegis.perception.screen.capture -->
<g id="edge17" class="edge">
<title>perception.screen.__init__&#45;&gt;aegis.perception.screen.capture</title>
<path fill="none" stroke="black" d="M538.18,-76.75C552.02,-74.89 566.33,-73.19 579.84,-72 1060.45,-29.54 1183.85,-73.96 1664.84,-36 1676.55,-35.08 1688.81,-33.88 1700.96,-32.54"/>
<polygon fill="black" stroke="black" points="1701.03,-36.05 1710.57,-31.45 1700.24,-29.1 1701.03,-36.05"/>
</g>
<!-- aegis.perception.screen.type -->
<g id="node20" class="node">
<title>aegis.perception.screen.type</title>
<ellipse fill="none" stroke="black" cx="589.84" cy="-18" rx="115.84" ry="18"/>
<text xml:space="preserve" text-anchor="middle" x="589.84" y="-12.95" font-family="Times,serif" font-size="14.00">aegis.perception.screen.type</text>
</g>
<!-- perception.screen.__init__&#45;&gt;aegis.perception.screen.type -->
<g id="edge16" class="edge">
<title>perception.screen.__init__&#45;&gt;aegis.perception.screen.type</title>
<path fill="none" stroke="black" d="M492.17,-72.41C509.26,-63.06 530.83,-51.27 549.35,-41.14"/>
<polygon fill="black" stroke="black" points="550.86,-44.31 557.95,-36.44 547.5,-38.17 550.86,-44.31"/>
</g>
<!-- computer_use -->
<g id="node18" class="node">
<title>computer_use</title>
<ellipse fill="none" stroke="black" cx="2263.84" cy="-90" rx="63.12" ry="18"/>
<text xml:space="preserve" text-anchor="middle" x="2263.84" y="-84.95" font-family="Times,serif" font-size="14.00">computer_use</text>
</g>
<!-- computer_use&#45;&gt;aegis.agent.gate -->
<g id="edge29" class="edge">
<title>computer_use&#45;&gt;aegis.agent.gate</title>
<path fill="none" stroke="black" d="M2262.36,-71.7C2261.73,-64.41 2260.99,-55.73 2260.29,-47.54"/>
<polygon fill="black" stroke="black" points="2263.78,-47.28 2259.43,-37.61 2256.8,-47.87 2263.78,-47.28"/>
</g>
<!-- computer_use&#45;&gt;aegis.perception.screen.capture -->
<g id="edge14" class="edge">
<title>computer_use&#45;&gt;aegis.perception.screen.capture</title>
<path fill="none" stroke="black" d="M2217.5,-77.36C2209,-75.42 2200.17,-73.55 2191.84,-72 2138.63,-62.14 2002.17,-44.26 1905.48,-32.02"/>
<polygon fill="black" stroke="black" points="1906.06,-28.56 1895.7,-30.78 1905.18,-35.51 1906.06,-28.56"/>
</g>
<!-- tools.cursor_tools -->
<g id="node23" class="node">
<title>tools.cursor_tools</title>
<ellipse fill="none" stroke="black" cx="1063.84" cy="-90" rx="76.94" ry="18"/>
<text xml:space="preserve" text-anchor="middle" x="1063.84" y="-84.95" font-family="Times,serif" font-size="14.00">tools.cursor_tools</text>
</g>
<!-- tools.cursor_tools&#45;&gt;aegis.tools.context -->
<g id="edge49" class="edge">
<title>tools.cursor_tools&#45;&gt;aegis.tools.context</title>
<path fill="none" stroke="black" d="M1120.69,-77.49C1130.4,-75.6 1140.4,-73.71 1149.84,-72 1246.9,-54.43 1271.72,-53.25 1368.84,-36 1375.09,-34.89 1381.58,-33.71 1388.08,-32.5"/>
<polygon fill="black" stroke="black" points="1388.32,-36.02 1397.51,-30.74 1387.03,-29.14 1388.32,-36.02"/>
</g>
<!-- tools.cursor_tools&#45;&gt;aegis.perception.cursor -->
<g id="edge28" class="edge">
<title>tools.cursor_tools&#45;&gt;aegis.perception.cursor</title>
<path fill="none" stroke="black" d="M1016.7,-75.42C978.44,-64.4 924.19,-48.77 882.48,-36.76"/>
<polygon fill="black" stroke="black" points="883.65,-33.45 873.08,-34.05 881.72,-40.18 883.65,-33.45"/>
</g>
<!-- tools.cursor_tools&#45;&gt;aegis.perception.screen.capture -->
<g id="edge31" class="edge">
<title>tools.cursor_tools&#45;&gt;aegis.perception.screen.capture</title>
<path fill="none" stroke="black" d="M1118.72,-77.09C1129.02,-75.15 1139.73,-73.35 1149.84,-72 1377.28,-41.69 1436.47,-58.24 1664.84,-36 1676.06,-34.91 1687.78,-33.64 1699.43,-32.29"/>
<polygon fill="black" stroke="black" points="1699.54,-35.8 1709.07,-31.16 1698.73,-28.85 1699.54,-35.8"/>
</g>
<!-- tools.cursor_tools&#45;&gt;aegis.tools.base -->
<g id="edge21" class="edge">
<title>tools.cursor_tools&#45;&gt;aegis.tools.base</title>
<path fill="none" stroke="black" d="M1108.96,-75.09C1145.64,-63.78 1197.5,-47.78 1236.47,-35.77"/>
<polygon fill="black" stroke="black" points="1237.38,-39.15 1245.9,-32.86 1235.31,-32.46 1237.38,-39.15"/>
</g>
<!-- aegis.perception.screen_executor -->
<g id="node24" class="node">
<title>aegis.perception.screen_executor</title>
<ellipse fill="none" stroke="black" cx="1069.84" cy="-18" rx="133.75" ry="18"/>
<text xml:space="preserve" text-anchor="middle" x="1069.84" y="-12.95" font-family="Times,serif" font-size="14.00">aegis.perception.screen_executor</text>
</g>
<!-- tools.cursor_tools&#45;&gt;aegis.perception.screen_executor -->
<g id="edge22" class="edge">
<title>tools.cursor_tools&#45;&gt;aegis.perception.screen_executor</title>
<path fill="none" stroke="black" d="M1065.32,-71.7C1065.95,-64.41 1066.69,-55.73 1067.39,-47.54"/>
<polygon fill="black" stroke="black" points="1070.88,-47.87 1068.24,-37.61 1063.9,-47.28 1070.88,-47.87"/>
</g>
<!-- tools.browser_tools -->
<g id="node26" class="node">
<title>tools.browser_tools</title>
<ellipse fill="none" stroke="black" cx="2444.84" cy="-90" rx="83.6" ry="18"/>
<text xml:space="preserve" text-anchor="middle" x="2444.84" y="-84.95" font-family="Times,serif" font-size="14.00">tools.browser_tools</text>
</g>
<!-- tools.browser_tools&#45;&gt;aegis.browser_manager -->
<g id="edge46" class="edge">
<title>tools.browser_tools&#45;&gt;aegis.browser_manager</title>
<path fill="none" stroke="black" d="M2444.84,-71.7C2444.84,-64.41 2444.84,-55.73 2444.84,-47.54"/>
<polygon fill="black" stroke="black" points="2448.34,-47.62 2444.84,-37.62 2441.34,-47.62 2448.34,-47.62"/>
</g>
<!-- tools.browser_tools&#45;&gt;aegis.interfaces -->
<g id="edge39" class="edge">
<title>tools.browser_tools&#45;&gt;aegis.interfaces</title>
<path fill="none" stroke="black" d="M2515.32,-79.92C2587.3,-70.32 2702.19,-54.07 2800.84,-36 2806.32,-35 2812.01,-33.89 2817.7,-32.73"/>
<polygon fill="black" stroke="black" points="2818.03,-36.24 2827.11,-30.78 2816.6,-29.38 2818.03,-36.24"/>
</g>
<!-- tools.browser_tools&#45;&gt;aegis.tools.base -->
<g id="edge24" class="edge">
<title>tools.browser_tools&#45;&gt;aegis.tools.base</title>
<path fill="none" stroke="black" d="M2381.6,-77.85C2366.64,-75.57 2350.71,-73.43 2335.84,-72 1907.74,-30.79 1795.51,-90 1368.84,-36 1362.91,-35.25 1356.76,-34.27 1350.64,-33.16"/>
<polygon fill="black" stroke="black" points="1351.68,-29.79 1341.19,-31.33 1350.34,-36.67 1351.68,-29.79"/>
</g>
<!-- tools.declarations -->
<g id="node27" class="node">
<title>tools.declarations</title>
<ellipse fill="none" stroke="black" cx="1234.84" cy="-90" rx="75.92" ry="18"/>
<text xml:space="preserve" text-anchor="middle" x="1234.84" y="-84.95" font-family="Times,serif" font-size="14.00">tools.declarations</text>
</g>
<!-- tools.declarations&#45;&gt;aegis.tools.base -->
<g id="edge27" class="edge">
<title>tools.declarations&#45;&gt;aegis.tools.base</title>
<path fill="none" stroke="black" d="M1248.4,-72.05C1255,-63.8 1263.08,-53.7 1270.41,-44.54"/>
<polygon fill="black" stroke="black" points="1272.95,-46.97 1276.46,-36.97 1267.48,-42.59 1272.95,-46.97"/>
</g>
<!-- tools.keyboard_tools -->
<g id="node29" class="node">
<title>tools.keyboard_tools</title>
<ellipse fill="none" stroke="black" cx="676.84" cy="-90" rx="88.2" ry="18"/>
<text xml:space="preserve" text-anchor="middle" x="676.84" y="-84.95" font-family="Times,serif" font-size="14.00">tools.keyboard_tools</text>
</g>
<!-- tools.keyboard_tools&#45;&gt;aegis.perception.screen.type -->
<g id="edge41" class="edge">
<title>tools.keyboard_tools&#45;&gt;aegis.perception.screen.type</title>
<path fill="none" stroke="black" d="M655.78,-72.05C644.96,-63.35 631.59,-52.59 619.72,-43.04"/>
<polygon fill="black" stroke="black" points="622.17,-40.52 612.19,-36.98 617.78,-45.98 622.17,-40.52"/>
</g>
<!-- tools.keyboard_tools&#45;&gt;aegis.tools.base -->
<g id="edge32" class="edge">
<title>tools.keyboard_tools&#45;&gt;aegis.tools.base</title>
<path fill="none" stroke="black" d="M740.11,-77.05C751.32,-75.18 762.9,-73.4 773.84,-72 968.01,-47.08 1019.22,-64.91 1212.84,-36 1218.44,-35.16 1224.23,-34.16 1230.02,-33.07"/>
<polygon fill="black" stroke="black" points="1230.48,-36.55 1239.6,-31.17 1229.11,-29.68 1230.48,-36.55"/>
</g>
<!-- tools.context -->
<g id="node30" class="node">
<title>tools.context</title>
<ellipse fill="none" stroke="black" cx="2123.84" cy="-90" rx="58.52" ry="18"/>
<text xml:space="preserve" text-anchor="middle" x="2123.84" y="-84.95" font-family="Times,serif" font-size="14.00">tools.context</text>
</g>
<!-- tools.context&#45;&gt;aegis.perception.screen.capture -->
<g id="edge33" class="edge">
<title>tools.context&#45;&gt;aegis.perception.screen.capture</title>
<path fill="none" stroke="black" d="M2080.3,-77.65C2072.5,-75.71 2064.44,-73.75 2056.84,-72 1999.58,-58.82 1934.77,-45.41 1884.68,-35.38"/>
<polygon fill="black" stroke="black" points="1885.55,-31.99 1875.06,-33.46 1884.18,-38.85 1885.55,-31.99"/>
</g>
<!-- perception.screen.ocr -->
<g id="node33" class="node">
<title>perception.screen.ocr</title>
<ellipse fill="none" stroke="black" cx="1560.84" cy="-90" rx="90.25" ry="18"/>
<text xml:space="preserve" text-anchor="middle" x="1560.84" y="-84.95" font-family="Times,serif" font-size="14.00">perception.screen.ocr</text>
</g>
<!-- perception.screen.ocr&#45;&gt;aegis.tools.context -->
<g id="edge43" class="edge">
<title>perception.screen.ocr&#45;&gt;aegis.tools.context</title>
<path fill="none" stroke="black" d="M1536.17,-72.23C1522.69,-63.08 1505.82,-51.61 1491.19,-41.66"/>
<polygon fill="black" stroke="black" points="1493.44,-38.97 1483.21,-36.24 1489.51,-44.75 1493.44,-38.97"/>
</g>
<!-- perception.screen.capture -->
<g id="node34" class="node">
<title>perception.screen.capture</title>
<ellipse fill="none" stroke="black" cx="175.84" cy="-90" rx="105.6" ry="18"/>
<text xml:space="preserve" text-anchor="middle" x="175.84" y="-84.95" font-family="Times,serif" font-size="14.00">perception.screen.capture</text>
</g>
<!-- perception.screen.capture&#45;&gt;aegis.perception.window -->
<g id="edge45" class="edge">
<title>perception.screen.capture&#45;&gt;aegis.perception.window</title>
<path fill="none" stroke="black" d="M216.45,-72.94C241.86,-62.89 274.8,-49.86 301.95,-39.13"/>
<polygon fill="black" stroke="black" points="303,-42.47 311.01,-35.54 300.43,-35.96 303,-42.47"/>
</g>
<!-- aegis.perception.screen.som -->
<g id="node35" class="node">
<title>aegis.perception.screen.som</title>
<ellipse fill="none" stroke="black" cx="115.84" cy="-18" rx="115.84" ry="18"/>
<text xml:space="preserve" text-anchor="middle" x="115.84" y="-12.95" font-family="Times,serif" font-size="14.00">aegis.perception.screen.som</text>
</g>
<!-- perception.screen.capture&#45;&gt;aegis.perception.screen.som -->
<g id="edge47" class="edge">
<title>perception.screen.capture&#45;&gt;aegis.perception.screen.som</title>
<path fill="none" stroke="black" d="M161.01,-71.7C154.03,-63.56 145.57,-53.69 137.87,-44.7"/>
<polygon fill="black" stroke="black" points="140.65,-42.57 131.49,-37.25 135.34,-47.12 140.65,-42.57"/>
</g>
<!-- runtime.tool_manager -->
<g id="node36" class="node">
<title>runtime.tool_manager</title>
<ellipse fill="none" stroke="black" cx="3249.84" cy="-90" rx="93.83" ry="18"/>
<text xml:space="preserve" text-anchor="middle" x="3249.84" y="-84.95" font-family="Times,serif" font-size="14.00">runtime.tool_manager</text>
</g>
<!-- runtime.tool_manager&#45;&gt;aegis.tools.declarations -->
<g id="edge50" class="edge">
<title>runtime.tool_manager&#45;&gt;aegis.tools.declarations</title>
<path fill="none" stroke="black" d="M3249.84,-71.7C3249.84,-64.41 3249.84,-55.73 3249.84,-47.54"/>
<polygon fill="black" stroke="black" points="3253.34,-47.62 3249.84,-37.62 3246.34,-47.62 3253.34,-47.62"/>
</g>
</g>
</svg>
